<!-- by TradingView --><svg width="56" height="56" viewBox="0 0 56 56" xmlns="http://www.w3.org/2000/svg"><path fill="#F0F3FA" d="M0 0h56v56H0z"/><path d="M18.67 22H21v.26c0 .43-.36.74-.8.74h-1.53C18 23 17 23.5 17 24.5v1c0 1 .94 1.5 1.53 1.5H21v.33c0 .43-.36.67-.8.67h-1.53A2.64 2.64 0 0 1 16 25.4v-.8c0-1.43 1.2-2.6 2.67-2.6ZM12.06 26.82l1.65-4.42c.1-.24.32-.4.57-.4H15l-2.2 5.6c-.09.24-.31.4-.56.4h-.8L9 22h.76c.25 0 .47.15.56.4l1.74 4.42ZM24.38 22H27v.26c0 .43-.32.74-.71.74h-1.9c-.6 0-1.39.5-1.39 1.5v1c0 1 .74 1.5 1.26 1.5H26v-1h-1.5v-1h2.02c.27 0 .48.23.48.52v1.7c0 .43-.32.78-.71.78h-1.9C23.06 28 22 26.83 22 25.4v-.8c0-1.43 1.07-2.6 2.38-2.6Z" fill="#453B41"/><path d="M28.95 15 31 19.32V22h-2.05L26 20l2.95-5ZM38 19l-3 3.36V27h4.5l5.5-1-7-7ZM23.91 37 28 33v-2h-2l-6 2 3.91 4Z" fill="#852D36"/><path fill="#CA3137" d="M45 19h-7v7h7zM26 15h3v5h-3zM20 37h4v-4h-4zM30 41h5v-5h-5z"/><path d="M30 36h5l-.5-3h-4l-.5 3ZM37.1 31.02l5.39 1.02L39.75 37l-3.51-4.35c-.33-.4-.32-.99.03-1.36a.86.86 0 0 1 .83-.27Z" fill="#852D36"/><circle cx="42" cy="35" r="3" fill="#CA3137"/></svg>