<!-- by TradingView --><svg width="56" height="56" viewBox="0 0 56 56" xmlns="http://www.w3.org/2000/svg"><path fill="#F0F3FA" d="M0 0h56v56H0z"/><path d="M12.26 37a16.23 16.23 0 0 0 4.14 3h23.2a16.23 16.23 0 0 0 4.14-3H12.26Zm-1.73-2h34.94c.65-.9 1.23-1.9 1.67-3H8.86c.44 1.1 1.02 2.1 1.67 3Zm-2.28-5h39.5a11.89 11.89 0 0 0 .13-4H8.12a11.89 11.89 0 0 0 .13 4Zm.4-6h38.7c-.42-1.09-.98-2.1-1.64-3H10.29c-.66.9-1.22 1.91-1.63 3ZM12 19c1.4-1.4 2.88-2.43 3.95-3h24.1c1.07.57 2.55 1.6 3.95 3H12Z" fill="#024691"/><circle cx="28" cy="28" r="9" fill="url(#a)"/><circle cx="28" cy="26.76" r="6.76" fill="url(#b)"/><circle cx="27.62" cy="26.13" fill="url(#c)" r="4.6"/><circle cx="27.62" cy="25.29" r="1.98" fill="#FFFBF1"/><defs><linearGradient id="a" x1="28" y1="19" x2="28" y2="37" gradientUnits="userSpaceOnUse"><stop stop-color="#F3BC78"/><stop offset="1" stop-color="#F28703"/></linearGradient><linearGradient id="b" x1="28" y1="19.99" x2="28" y2="33.52" gradientUnits="userSpaceOnUse"><stop stop-color="#F5CE95"/><stop offset="1" stop-color="#F6AC57"/></linearGradient><linearGradient id="c" x1="27.62" y1="21.53" x2="27.62" y2="30.72" gradientUnits="userSpaceOnUse"><stop stop-color="#FAE0BF"/><stop offset="1" stop-color="#FACD99"/></linearGradient></defs></svg>