<!-- by TradingView --><svg width="56" height="56" viewBox="0 0 56 56" xmlns="http://www.w3.org/2000/svg"><path fill="#31AEE5" d="M0 0h56v56H0z"/><path d="M38.78 26.4c0-7.98-6.91-10.02-10.37-10.05 2.8-.84 13-.98 13 9.06 0 8.04-6.7 12.4-10.06 13.59 2.48-1.57 7.43-6.29 7.43-12.6ZM9 30.14c0 14.5 16.73 10.33 17 10.22-6.2 0-9.52-2.09-9.52-8.97 0-5.5 3.34-9.72 5.01-11.13L14.51 17C12.68 19.17 9 24.84 9 30.14ZM40.4 18c.88.95 2.67 4.01 2.67 8.66 0 4.66-2.9 8.83-4.34 10.34 2.06-1 6.18-4.58 6.18-10.87 0-4.8-3.55-7.4-4.36-8L40.4 18Zm6.1 8.48c0-3.63-1.44-6.02-2.16-6.77l.13.1c.66.47 3.53 2.5 3.53 6.25 0 4.91-3.33 7.7-5 8.49 1.17-1.18 3.5-4.44 3.5-8.07ZM32 25h-9v8h9v-8Z" fill="#0247BC"/></svg>