<!-- by TradingView --><svg width="56" height="56" viewBox="0 0 56 56" xmlns="http://www.w3.org/2000/svg"><path fill="#F0F3FA" d="M0 0h56v56H0z"/><path d="M39.58 39.63A16.48 16.48 0 0 0 44 28.35C44 19.32 36.84 12 28 12s-16 7.32-16 16.35c0 4.37 1.68 8.33 4.4 11.27 4.6-2.28 11.83-8.88 11.44-21.22 2.08 2.21 5.12 8.47.54 15.8l-1.94-.79.93 1.9c-1.42 1.26-4.96 4.08-7.8 5.22 1.77-.37 6.02-1.71 8.8-4.11.88-.06 2.76-.45 3.26-1.58l-1.09-.64c.67-1 2.18-3.55 2.86-5.76l1.94 3C33.89 33.89 29.5 39.23 23.5 41c2.47-.21 8.46-2.21 12.6-8.53l.47 1.73a23 23 0 0 1-8.2 6.33c1.2 0 4.65-1.05 8.74-5.22l2.46 4.32Z" fill="#BB022E"/></svg>