<!-- by TradingView --><svg width="56" height="56" viewBox="0 0 56 56" xmlns="http://www.w3.org/2000/svg"><path fill="#F0F3FA" d="M0 0h56v56H0z"/><path d="M36 34h-8v-9l8-6v15Z" fill="#007E63"/><path d="M36 34V19l16 6v9H36Z" fill="#11AA7E"/><path d="m51.5 25.5-13.5-5V33h1V21.5h1V33h.5V22h1v11h.5V23h1v10h.5v-9.5h1V33h.5v-9.2h1V33h.5v-8.5h1V33h.5v-8h1v8h.5v-7.5h1V33h.5v-7.5h.5ZM12 34H4v-9l8-6v15Z" fill="#007E63"/><path d="M12 34V19l16 6v9H12Z" fill="#11AA7E"/><path d="m27.5 25.5-13.5-5V33h1V21.5h1V33h.5V22h1v11h.5V23h1v10h.5v-9.5h1V33h.5v-9.2h1V33h.5v-8.5h1V33h.5v-8h1v8h.5v-7.5h1V33h.5v-7.5h.5Z" fill="#007E63"/></svg>