<!-- by TradingView --><svg width="56" height="56" viewBox="0 0 56 56" xmlns="http://www.w3.org/2000/svg"><path fill="#F0F3FA" d="M0 0h56v56H0z"/><path d="M19.92 13H12v30h6V31.16L23.08 43H31V13h-6v11.05L19.92 13Z" fill="#00AAE7"/><path d="M28 34h-4v9h4v-1.5h-2v-2h2V38h-2v-2.5h2V34ZM31.5 34H29l1.43 9h2.86l.71-4.5.71 4.5h2.86L39 34h-2.5l-.63 6-.62-6h-2.5l-.63 6-.62-6ZM41.62 43c-.57 0-1.05-.1-1.43-.3a1.9 1.9 0 0 1-.86-.89c-.2-.4-.3-.94-.33-1.59l1.72-.25c0 .38.04.68.1.91.07.23.16.4.27.5.12.1.26.15.43.15.2 0 .34-.07.4-.2.07-.14.1-.29.1-.44 0-.36-.09-.66-.27-.9-.18-.26-.42-.5-.73-.76l-.78-.66c-.35-.28-.64-.6-.88-.95a2.4 2.4 0 0 1-.35-1.33c0-.74.23-1.3.69-1.7.45-.4 1.08-.59 1.86-.59.49 0 .88.08 1.17.24.3.16.52.36.67.62.16.26.27.53.32.81.06.29.1.56.1.81l-1.73.21c0-.26-.03-.48-.06-.67a.85.85 0 0 0-.15-.44c-.09-.11-.21-.16-.39-.16a.45.45 0 0 0-.41.22.94.94 0 0 0-.12.46c0 .32.07.59.23.8.17.2.38.41.64.63l.75.64c.4.32.73.7 1 1.1.28.41.42.92.42 1.53a2.1 2.1 0 0 1-1.12 1.91c-.36.2-.78.29-1.26.29Z" fill="#0051A4"/></svg>